# xmcd
#
# Track frame offsets:
#	150
#	17339
#	31280
#	49716
#	70394
#	88381
#	101643
#	118248
#	135591
#	150651
#	174081
#
# Disc length: 2483 seconds
#
# Revision: 1
# Processed by: cddbd v1.5.1PL2 Copyright (c) Steve Scherf et al.
# Submitted via: audiograbber 1.81.00
#
DISCID=8a09b10b
DTITLE=Hjerterknekt - I Ly Av Mørket 
DYEAR=2006
DGENRE=Country
TTITLE0=Syng Meg Gjennom
TTITLE1=I Ly Av Mørket 
TTITLE2=Jeg Hører En Gitar I Kveld
TTITLE3=Vent På Meg 
TTITLE4=Kors På Halsen
TTITLE5=Nysnø I April
TTITLE6=Inn Fra Kulda 
TTITLE7=Rett Gjennom Meg 
TTITLE8=Din Stund På Jorda 
TTITLE9=Hardt Liv 
TTITLE10=La Meg Gå
EXTD=
EXTT0=
EXTT1=
EXTT2=
EXTT3=
EXTT4=
EXTT5=
EXTT6=
EXTT7=
EXTT8=
EXTT9=
EXTT10=
PLAYORDER=
